<?xml version="1.0" encoding="utf-8" standalone="no"?>
<!DOCTYPE svg PUBLIC "-//W3C//DTD SVG 1.1//EN"
  "http://www.w3.org/Graphics/SVG/1.1/DTD/svg11.dtd">
<svg xmlns:xlink="http://www.w3.org/1999/xlink" width="515.52pt" height="198pt" viewBox="0 0 515.52 198" xmlns="http://www.w3.org/2000/svg" version="1.1">
 <metadata>
  <rdf:RDF xmlns:dc="http://purl.org/dc/elements/1.1/" xmlns:cc="http://creativecommons.org/ns#" xmlns:rdf="http://www.w3.org/1999/02/22-rdf-syntax-ns#">
   <cc:Work>
    <dc:type rdf:resource="http://purl.org/dc/dcmitype/StillImage"/>
    <dc:format>image/svg+xml</dc:format>
    <dc:creator>
     <cc:Agent>
      <dc:title>Matplotlib v3.7.5, https://matplotlib.org/</dc:title>
     </cc:Agent>
    </dc:creator>
   </cc:Work>
  </rdf:RDF>
 </metadata>
 <defs>
  <style type="text/css">*{stroke-linejoin: round; stroke-linecap: butt}</style>
 </defs>
 <g id="figure_1">
  <g id="patch_1">
   <path d="M 0 198
L 515.52 198
L 515.52 0
L 0 0
z
" style="fill: #ffffff"/>
  </g>
  <g id="axes_1">
   <g id="patch_2">
    <path d="M 97.9488 148.5
L 307.291202 148.5
L 307.291202 27.72
L 97.9488 27.72
z
" style="fill: #ffffff"/>
   </g>
   <g id="matplotlib.axis_1">
    <g id="xtick_1">
     <g id="line2d_1">
      <path d="M 97.9488 148.5
L 97.9488 27.72
" clip-path="url(#p483306ccf2)" style="fill: none; stroke: #dde6ea; stroke-width: 0.55; stroke-linecap: square"/>
     </g>
     <g id="line2d_2">
      <defs>
       <path id="ma74b800a64" d="M 0 0
L 0 2.5
" style="stroke: #687983; stroke-width: 0.55"/>
      </defs>
      <g>
       <use xlink:href="#ma74b800a64" x="97.9488" y="148.5" style="fill: #687983; stroke: #687983; stroke-width: 0.55"/>
      </g>
     </g>
     <g id="text_1">
      <text style="fill: #687983; font: 7.2px 'Times New Roman', 'TeX Gyre Termes', 'Liberation Serif', serif; text-anchor: middle" x="97.9488" y="159.496125" transform="rotate(-0 97.9488 159.496125)">0</text>
     </g>
    </g>
    <g id="xtick_2">
     <g id="line2d_3">
      <path d="M 139.81728 148.5
L 139.81728 27.72
" clip-path="url(#p483306ccf2)" style="fill: none; stroke: #dde6ea; stroke-width: 0.55; stroke-linecap: square"/>
     </g>
     <g id="line2d_4">
      <g>
       <use xlink:href="#ma74b800a64" x="139.81728" y="148.5" style="fill: #687983; stroke: #687983; stroke-width: 0.55"/>
      </g>
     </g>
     <g id="text_2">
      <text style="fill: #687983; font: 7.2px 'Times New Roman', 'TeX Gyre Termes', 'Liberation Serif', serif; text-anchor: middle" x="139.81728" y="159.496125" transform="rotate(-0 139.81728 159.496125)">10</text>
     </g>
    </g>
    <g id="xtick_3">
     <g id="line2d_5">
      <path d="M 181.685761 148.5
L 181.685761 27.72
" clip-path="url(#p483306ccf2)" style="fill: none; stroke: #dde6ea; stroke-width: 0.55; stroke-linecap: square"/>
     </g>
     <g id="line2d_6">
      <g>
       <use xlink:href="#ma74b800a64" x="181.685761" y="148.5" style="fill: #687983; stroke: #687983; stroke-width: 0.55"/>
      </g>
     </g>
     <g id="text_3">
      <text style="fill: #687983; font: 7.2px 'Times New Roman', 'TeX Gyre Termes', 'Liberation Serif', serif; text-anchor: middle" x="181.685761" y="159.496125" transform="rotate(-0 181.685761 159.496125)">20</text>
     </g>
    </g>
    <g id="xtick_4">
     <g id="line2d_7">
      <path d="M 223.554241 148.5
L 223.554241 27.72
" clip-path="url(#p483306ccf2)" style="fill: none; stroke: #dde6ea; stroke-width: 0.55; stroke-linecap: square"/>
     </g>
     <g id="line2d_8">
      <g>
       <use xlink:href="#ma74b800a64" x="223.554241" y="148.5" style="fill: #687983; stroke: #687983; stroke-width: 0.55"/>
      </g>
     </g>
     <g id="text_4">
      <text style="fill: #687983; font: 7.2px 'Times New Roman', 'TeX Gyre Termes', 'Liberation Serif', serif; text-anchor: middle" x="223.554241" y="159.496125" transform="rotate(-0 223.554241 159.496125)">30</text>
     </g>
    </g>
    <g id="xtick_5">
     <g id="line2d_9">
      <path d="M 265.422722 148.5
L 265.422722 27.72
" clip-path="url(#p483306ccf2)" style="fill: none; stroke: #dde6ea; stroke-width: 0.55; stroke-linecap: square"/>
     </g>
     <g id="line2d_10">
      <g>
       <use xlink:href="#ma74b800a64" x="265.422722" y="148.5" style="fill: #687983; stroke: #687983; stroke-width: 0.55"/>
      </g>
     </g>
     <g id="text_5">
      <text style="fill: #687983; font: 7.2px 'Times New Roman', 'TeX Gyre Termes', 'Liberation Serif', serif; text-anchor: middle" x="265.422722" y="159.496125" transform="rotate(-0 265.422722 159.496125)">40</text>
     </g>
    </g>
    <g id="xtick_6">
     <g id="line2d_11">
      <path d="M 307.291202 148.5
L 307.291202 27.72
" clip-path="url(#p483306ccf2)" style="fill: none; stroke: #dde6ea; stroke-width: 0.55; stroke-linecap: square"/>
     </g>
     <g id="line2d_12">
      <g>
       <use xlink:href="#ma74b800a64" x="307.291202" y="148.5" style="fill: #687983; stroke: #687983; stroke-width: 0.55"/>
      </g>
     </g>
     <g id="text_6">
      <text style="fill: #687983; font: 7.2px 'Times New Roman', 'TeX Gyre Termes', 'Liberation Serif', serif; text-anchor: middle" x="307.291202" y="159.496125" transform="rotate(-0 307.291202 159.496125)">50</text>
     </g>
    </g>
    <g id="text_7">
     <text style="fill: #394a54; font: 8px 'Times New Roman', 'TeX Gyre Termes', 'Liberation Serif', serif; text-anchor: middle" x="202.620001" y="170.58075" transform="rotate(-0 202.620001 170.58075)">Rate (%)</text>
    </g>
   </g>
   <g id="matplotlib.axis_2"/>
   <g id="line2d_13">
    <path d="M 200.98713 59.352857
L 259.309924 59.352857
" clip-path="url(#p483306ccf2)" style="fill: none; stroke: #aebcc3; stroke-width: 1.6; stroke-linecap: square"/>
   </g>
   <g id="line2d_14">
    <path d="M 230.75562 116.867143
L 192.697171 116.867143
" clip-path="url(#p483306ccf2)" style="fill: none; stroke: #aebcc3; stroke-width: 1.6; stroke-linecap: square"/>
   </g>
   <g id="patch_3">
    <path d="M 97.9488 148.5
L 307.291202 148.5
" style="fill: none; stroke: #687983; stroke-width: 0.65; stroke-linejoin: miter; stroke-linecap: square"/>
   </g>
   <g id="PathCollection_1">
    <defs>
     <path id="m8100a7d278" d="M 0 3.464102
C 0.91869 3.464102 1.799877 3.099102 2.44949 2.44949
C 3.099102 1.799877 3.464102 0.91869 3.464102 0
C 3.464102 -0.91869 3.099102 -1.799877 2.44949 -2.44949
C 1.799877 -3.099102 0.91869 -3.464102 0 -3.464102
C -0.91869 -3.464102 -1.799877 -3.099102 -2.44949 -2.44949
C -3.099102 -1.799877 -3.464102 -0.91869 -3.464102 0
C -3.464102 0.91869 -3.099102 1.799877 -2.44949 2.44949
C -1.799877 3.099102 -0.91869 3.464102 0 3.464102
z
" style="stroke: #ffffff; stroke-width: 0.7"/>
    </defs>
    <g clip-path="url(#p483306ccf2)">
     <use xlink:href="#m8100a7d278" x="200.98713" y="59.352857" style="fill: #56a1b8; stroke: #ffffff; stroke-width: 0.7"/>
    </g>
   </g>
   <g id="PathCollection_2">
    <defs>
     <path id="m0f480d72d5" d="M 0 3.807887
C 1.009863 3.807887 1.978501 3.406664 2.692582 2.692582
C 3.406664 1.978501 3.807887 1.009863 3.807887 0
C 3.807887 -1.009863 3.406664 -1.978501 2.692582 -2.692582
C 1.978501 -3.406664 1.009863 -3.807887 0 -3.807887
C -1.009863 -3.807887 -1.978501 -3.406664 -2.692582 -2.692582
C -3.406664 -1.978501 -3.807887 -1.009863 -3.807887 0
C -3.807887 1.009863 -3.406664 1.978501 -2.692582 2.692582
C -1.978501 3.406664 -1.009863 3.807887 0 3.807887
z
" style="stroke: #ffffff; stroke-width: 0.7"/>
    </defs>
    <g clip-path="url(#p483306ccf2)">
     <use xlink:href="#m0f480d72d5" x="259.309924" y="59.352857" style="fill: #c47fa0; stroke: #ffffff; stroke-width: 0.7"/>
    </g>
   </g>
   <g id="text_8">
    <text style="fill: #56a1b8; font: 7.3px 'Times New Roman', 'TeX Gyre Termes', 'Liberation Serif', serif; text-anchor: middle" x="200.98713" y="48.425143" transform="rotate(-0 200.98713 48.425143)">24.61%</text>
   </g>
   <g id="text_9">
    <text style="fill: #985d79; font: 700 7.3px 'Times New Roman', 'TeX Gyre Termes', 'Liberation Serif', serif; text-anchor: middle" x="259.309924" y="48.425143" transform="rotate(-0 259.309924 48.425143)">38.54%</text>
   </g>
   <g id="text_10">
    <text style="fill: #394a54; font: 700 8px 'Times New Roman', 'TeX Gyre Termes', 'Liberation Serif', serif; text-anchor: end" x="303.104354" y="58.976036" transform="rotate(-0 303.104354 58.976036)">+13.93 pp</text>
   </g>
   <g id="text_11">
    <text style="fill: #687983; font: 6.8px 'Times New Roman', 'TeX Gyre Termes', 'Liberation Serif', serif; text-anchor: end" x="303.104354" y="70.765473" transform="rotate(-0 303.104354 70.765473)">95% CI [+9.51, +18.23]</text>
   </g>
   <g id="text_12">
    <text style="fill: #394a54; font: 7.8px 'Times New Roman', 'TeX Gyre Termes', 'Liberation Serif', serif" transform="translate(51.658573 57.139485)">Full success</text>
    <text style="fill: #394a54; font: 7.8px 'Times New Roman', 'TeX Gyre Termes', 'Liberation Serif', serif" transform="translate(37.595416 65.295604)">(higher is better)</text>
   </g>
   <g id="PathCollection_3">
    <g clip-path="url(#p483306ccf2)">
     <use xlink:href="#m8100a7d278" x="230.75562" y="116.867143" style="fill: #56a1b8; stroke: #ffffff; stroke-width: 0.7"/>
    </g>
   </g>
   <g id="PathCollection_4">
    <g clip-path="url(#p483306ccf2)">
     <use xlink:href="#m0f480d72d5" x="192.697171" y="116.867143" style="fill: #c47fa0; stroke: #ffffff; stroke-width: 0.7"/>
    </g>
   </g>
   <g id="text_13">
    <text style="fill: #56a1b8; font: 7.3px 'Times New Roman', 'TeX Gyre Termes', 'Liberation Serif', serif; text-anchor: middle" x="230.75562" y="105.939429" transform="rotate(-0 230.75562 105.939429)">31.72%</text>
   </g>
   <g id="text_14">
    <text style="fill: #985d79; font: 700 7.3px 'Times New Roman', 'TeX Gyre Termes', 'Liberation Serif', serif; text-anchor: middle" x="192.697171" y="105.939429" transform="rotate(-0 192.697171 105.939429)">22.63%</text>
   </g>
   <g id="text_15">
    <text style="fill: #394a54; font: 700 8px 'Times New Roman', 'TeX Gyre Termes', 'Liberation Serif', serif; text-anchor: end" x="303.104354" y="116.490321" transform="rotate(-0 303.104354 116.490321)">-9.09 pp</text>
   </g>
   <g id="text_16">
    <text style="fill: #687983; font: 6.8px 'Times New Roman', 'TeX Gyre Termes', 'Liberation Serif', serif; text-anchor: end" x="303.104354" y="128.279759" transform="rotate(-0 303.104354 128.279759)">95% CI [-11.25, -7.03]</text>
   </g>
   <g id="text_17">
    <text style="fill: #394a54; font: 7.8px 'Times New Roman', 'TeX Gyre Termes', 'Liberation Serif', serif" transform="translate(41.689198 114.66474)">Robot collision</text>
    <text style="fill: #394a54; font: 7.8px 'Times New Roman', 'TeX Gyre Termes', 'Liberation Serif', serif" transform="translate(39.762354 122.820858)">(lower is better)</text>
   </g>
   <g id="text_18">
    <text style="fill: #394a54; font: 700 8.5px 'Times New Roman', 'TeX Gyre Termes', 'Liberation Serif', serif; text-anchor: middle" x="202.620001" y="19.72" transform="rotate(-0 202.620001 19.72)">(a) Task outcomes</text>
   </g>
  </g>
  <g id="axes_2">
   <g id="patch_4">
    <path d="M 372.727586 148.5
L 507.7872 148.5
L 507.7872 27.72
L 372.727586 27.72
z
" style="fill: #ffffff"/>
   </g>
   <g id="matplotlib.axis_3">
    <g id="xtick_7">
     <g id="line2d_15">
      <path d="M 372.727586 148.5
L 372.727586 27.72
" clip-path="url(#p39a51a7d44)" style="fill: none; stroke: #dde6ea; stroke-width: 0.55; stroke-linecap: square"/>
     </g>
     <g id="line2d_16">
      <g>
       <use xlink:href="#ma74b800a64" x="372.727586" y="148.5" style="fill: #687983; stroke: #687983; stroke-width: 0.55"/>
      </g>
     </g>
     <g id="text_19">
      <text style="fill: #687983; font: 7.2px 'Times New Roman', 'TeX Gyre Termes', 'Liberation Serif', serif; text-anchor: middle" x="372.727586" y="159.496125" transform="rotate(-0 372.727586 159.496125)">0</text>
     </g>
    </g>
    <g id="xtick_8">
     <g id="line2d_17">
      <path d="M 406.492489 148.5
L 406.492489 27.72
" clip-path="url(#p39a51a7d44)" style="fill: none; stroke: #dde6ea; stroke-width: 0.55; stroke-linecap: square"/>
     </g>
     <g id="line2d_18">
      <g>
       <use xlink:href="#ma74b800a64" x="406.492489" y="148.5" style="fill: #687983; stroke: #687983; stroke-width: 0.55"/>
      </g>
     </g>
     <g id="text_20">
      <text style="fill: #687983; font: 7.2px 'Times New Roman', 'TeX Gyre Termes', 'Liberation Serif', serif; text-anchor: middle" x="406.492489" y="159.496125" transform="rotate(-0 406.492489 159.496125)">10</text>
     </g>
    </g>
    <g id="xtick_9">
     <g id="line2d_19">
      <path d="M 440.257393 148.5
L 440.257393 27.72
" clip-path="url(#p39a51a7d44)" style="fill: none; stroke: #dde6ea; stroke-width: 0.55; stroke-linecap: square"/>
     </g>
     <g id="line2d_20">
      <g>
       <use xlink:href="#ma74b800a64" x="440.257393" y="148.5" style="fill: #687983; stroke: #687983; stroke-width: 0.55"/>
      </g>
     </g>
     <g id="text_21">
      <text style="fill: #687983; font: 7.2px 'Times New Roman', 'TeX Gyre Termes', 'Liberation Serif', serif; text-anchor: middle" x="440.257393" y="159.496125" transform="rotate(-0 440.257393 159.496125)">20</text>
     </g>
    </g>
    <g id="xtick_10">
     <g id="line2d_21">
      <path d="M 474.022296 148.5
L 474.022296 27.72
" clip-path="url(#p39a51a7d44)" style="fill: none; stroke: #dde6ea; stroke-width: 0.55; stroke-linecap: square"/>
     </g>
     <g id="line2d_22">
      <g>
       <use xlink:href="#ma74b800a64" x="474.022296" y="148.5" style="fill: #687983; stroke: #687983; stroke-width: 0.55"/>
      </g>
     </g>
     <g id="text_22">
      <text style="fill: #687983; font: 7.2px 'Times New Roman', 'TeX Gyre Termes', 'Liberation Serif', serif; text-anchor: middle" x="474.022296" y="159.496125" transform="rotate(-0 474.022296 159.496125)">30</text>
     </g>
    </g>
    <g id="xtick_11">
     <g id="line2d_23">
      <path d="M 507.7872 148.5
L 507.7872 27.72
" clip-path="url(#p39a51a7d44)" style="fill: none; stroke: #dde6ea; stroke-width: 0.55; stroke-linecap: square"/>
     </g>
     <g id="line2d_24">
      <g>
       <use xlink:href="#ma74b800a64" x="507.7872" y="148.5" style="fill: #687983; stroke: #687983; stroke-width: 0.55"/>
      </g>
     </g>
     <g id="text_23">
      <text style="fill: #687983; font: 7.2px 'Times New Roman', 'TeX Gyre Termes', 'Liberation Serif', serif; text-anchor: middle" x="507.7872" y="159.496125" transform="rotate(-0 507.7872 159.496125)">40</text>
     </g>
    </g>
    <g id="text_24">
     <text style="fill: #394a54; font: 8px 'Times New Roman', 'TeX Gyre Termes', 'Liberation Serif', serif; text-anchor: middle" x="440.257393" y="170.58075" transform="rotate(-0 440.257393 170.58075)">Paired-success steps (lower is better)</text>
    </g>
   </g>
   <g id="matplotlib.axis_4"/>
   <g id="line2d_25">
    <path d="M 434.254743 88.11
L 477.80075 88.11
" clip-path="url(#p39a51a7d44)" style="fill: none; stroke: #aebcc3; stroke-width: 1.6; stroke-linecap: square"/>
   </g>
   <g id="patch_5">
    <path d="M 372.727586 148.5
L 507.7872 148.5
" style="fill: none; stroke: #687983; stroke-width: 0.65; stroke-linejoin: miter; stroke-linecap: square"/>
   </g>
   <g id="PathCollection_5">
    <g clip-path="url(#p39a51a7d44)">
     <use xlink:href="#m8100a7d278" x="434.254743" y="88.11" style="fill: #56a1b8; stroke: #ffffff; stroke-width: 0.7"/>
    </g>
   </g>
   <g id="PathCollection_6">
    <g clip-path="url(#p39a51a7d44)">
     <use xlink:href="#m0f480d72d5" x="477.80075" y="88.11" style="fill: #c47fa0; stroke: #ffffff; stroke-width: 0.7"/>
    </g>
   </g>
   <g id="text_25">
    <text style="fill: #56a1b8; font: 7.3px 'Times New Roman', 'TeX Gyre Termes', 'Liberation Serif', serif; text-anchor: middle" x="434.254743" y="67.248" transform="rotate(-0 434.254743 67.248)">18.22</text>
   </g>
   <g id="text_26">
    <text style="fill: #985d79; font: 700 7.3px 'Times New Roman', 'TeX Gyre Termes', 'Liberation Serif', serif; text-anchor: middle" x="477.80075" y="67.248" transform="rotate(-0 477.80075 67.248)">31.12</text>
   </g>
   <g id="text_27">
    <text style="fill: #394a54; font: 700 8px 'Times New Roman', 'TeX Gyre Termes', 'Liberation Serif', serif; text-anchor: end" x="505.423657" y="82.62" transform="rotate(-0 505.423657 82.62)">+12.90 steps</text>
   </g>
   <g id="text_28">
    <text style="fill: #687983; font: 6.8px 'Times New Roman', 'TeX Gyre Termes', 'Liberation Serif', serif; text-anchor: end" x="505.423657" y="106.776" transform="rotate(-0 505.423657 106.776)">95% CI [+10.06, +16.34]</text>
   </g>
   <g id="text_29">
    <text style="fill: #394a54; font: 700 8.5px 'Times New Roman', 'TeX Gyre Termes', 'Liberation Serif', serif; text-anchor: middle" x="440.257393" y="19.72" transform="rotate(-0 440.257393 19.72)">(b) Completion-step cost</text>
   </g>
  </g>
  <g id="legend_1">
   <g id="line2d_26">
    <defs>
     <path id="mf1bab18cab" d="M 0 3
C 0.795609 3 1.55874 2.683901 2.12132 2.12132
C 2.683901 1.55874 3 0.795609 3 0
C 3 -0.795609 2.683901 -1.55874 2.12132 -2.12132
C 1.55874 -2.683901 0.795609 -3 0 -3
C -0.795609 -3 -1.55874 -2.683901 -2.12132 -2.12132
C -2.683901 -1.55874 -3 -0.795609 -3 0
C -3 0.795609 -2.683901 1.55874 -2.12132 2.12132
C -1.55874 2.683901 -0.795609 3 0 3
z
" style="stroke: #56a1b8"/>
    </defs>
    <g>
     <use xlink:href="#mf1bab18cab" x="205.985437" y="184.183219" style="fill: #56a1b8; stroke: #56a1b8"/>
    </g>
   </g>
   <g id="text_30">
    <text style="font: 7.4px 'Times New Roman', 'TeX Gyre Termes', 'Liberation Serif', serif; text-anchor: start" x="215.975437" y="186.773219" transform="rotate(-0 215.975437 186.773219)">Navigation Actor</text>
   </g>
   <g id="line2d_27">
    <defs>
     <path id="m2c50c66240" d="M 0 3
C 0.795609 3 1.55874 2.683901 2.12132 2.12132
C 2.683901 1.55874 3 0.795609 3 0
C 3 -0.795609 2.683901 -1.55874 2.12132 -2.12132
C 1.55874 -2.683901 0.795609 -3 0 -3
C -0.795609 -3 -1.55874 -2.683901 -2.12132 -2.12132
C -2.683901 -1.55874 -3 -0.795609 -3 0
C -3 0.795609 -2.683901 1.55874 -2.12132 2.12132
C -1.55874 2.683901 -0.795609 3 0 3
z
" style="stroke: #c47fa0"/>
    </defs>
    <g>
     <use xlink:href="#m2c50c66240" x="282.68875" y="184.183219" style="fill: #c47fa0; stroke: #c47fa0"/>
    </g>
   </g>
   <g id="text_31">
    <text style="font: 7.4px 'Times New Roman', 'TeX Gyre Termes', 'Liberation Serif', serif; text-anchor: start" x="292.67875" y="186.773219" transform="rotate(-0 292.67875 186.773219)">PIRoute</text>
   </g>
  </g>
 </g>
 <defs>
  <clipPath id="p483306ccf2">
   <rect x="97.9488" y="27.72" width="209.342402" height="120.78"/>
  </clipPath>
  <clipPath id="p39a51a7d44">
   <rect x="372.727586" y="27.72" width="135.059614" height="120.78"/>
  </clipPath>
 </defs>
</svg>
